# xmcd CD database file
#
# Track frame offsets:
#	150
#	7867
#	16247
#	44462
#	60439
#	90620
#	119590
#	160307
#	183585
#	203340
#	210915
#
# Disc length: 3296 seconds
#
# Revision: 0
# Processed by: cddbd v1.5PL3 Copyright (c) Steve Scherf et al.
# Submitted via: CDex 1.50Beta7
#
DISCID=810cde0b
DTITLE=ケロQ - モエかんVFB -続ご奉仕CD-
DYEAR=2003
DGENRE=Anime
TTITLE0=開会の言葉
TTITLE1=風の中の青い鳥 -Driving 電気Remix short version-
TTITLE2=祭りの直前
TTITLE3=1人目
TTITLE4=2人目
TTITLE5=3人目
TTITLE6=4人目
TTITLE7=祭りの後
TTITLE8=機械人形
TTITLE9=声優さんからのメッセージ
TTITLE10=風の中の青い鳥 -Driving 電気Remix-
EXTD=YEAR: 2003
EXTT0=
EXTT1=
EXTT2=
EXTT3=
EXTT4=
EXTT5=
EXTT6=
EXTT7=
EXTT8=
EXTT9=
EXTT10=
PLAYORDER=
